# xmcd CD database file
#
# Track frame offsets:
#	180
#	15885
#	36603
#	49552
#	62036
#	76788
#	93320
#	108631
#	128958
#	148608
#	162200
#	175154
#	193841
#	213314
#	225172
#	239292
#
# Disc length: 3369 seconds
#
# Revision: 0
# Processed by: cddbd v1.5.2PL0 Copyright (c) Steve Scherf et al.
# Submitted via: CDex 1.51
#
DISCID=cd0d2710
DTITLE=Various Artist - Musica Tropical de Colombia V2
DYEAR=1900
DGENRE=Salsa
TTITLE0=cha cun cha
TTITLE1=pegaso
TTITLE2=guepaje
TTITLE3=tolu
TTITLE4=cumbia de caribe
TTITLE5=las cuatro fiestas
TTITLE6=sobre las olas
TTITLE7=la zenaida
TTITLE8=mi vecina
TTITLE9=el tizon
TTITLE10=ligia
TTITLE11=islas canarias
TTITLE12=tomando y tomando
TTITLE13=quiero amanecer
TTITLE14=muchacha de 15
TTITLE15=si la vieran
EXTD=
EXTT0=
EXTT1=
EXTT2=
EXTT3=
EXTT4=
EXTT5=
EXTT6=
EXTT7=
EXTT8=
EXTT9=
EXTT10=
EXTT11=
EXTT12=
EXTT13=
EXTT14=
EXTT15=
PLAYORDER=
